<?xml version="1.0" encoding="utf-8"?>
<!-- Generator: Adobe Illustrator 21.0.0, SVG Export Plug-In . SVG Version: 6.00 Build 0)  -->
<svg version="1.1" id="图层_1" xmlns="http://www.w3.org/2000/svg" xmlns:xlink="http://www.w3.org/1999/xlink" x="0px" y="0px"
	 viewBox="0 0 64 64" style="enable-background:new 0 0 64 64;" xml:space="preserve">
<style type="text/css">
	.st0{opacity:0.6;fill:#0000FF;}
	.st1{fill:#0000FF;}
	.st2{opacity:0.3;fill:#0000FF;}
</style>
<path class="st0" d="M32,38c-4.4,0-8,1.3-8,3v15c0,1.7,3.6,3,8,3s8-1.3,8-3V41C40,39.3,36.4,38,32,38z"/>
<circle class="st1" cx="32" cy="28" r="10"/>
<path class="st0" d="M32,12c-8.8,0-16,7.2-16,16s7.2,16,16,16s16-7.2,16-16S40.8,12,32,12z M32,38c-5.5,0-10-4.5-10-10
	c0-5.5,4.5-10,10-10s10,4.5,10,10C42,33.5,37.5,38,32,38z"/>
<g>
	<circle class="st2" cx="32" cy="28" r="10"/>
	<path class="st2" d="M32,6c-12.2,0-22,9.8-22,22s9.8,22,22,22s22-9.8,22-22S44.2,6,32,6z M32,44c-8.8,0-16-7.2-16-16s7.2-16,16-16
		s16,7.2,16,16S40.8,44,32,44z"/>
</g>
</svg>
